<svg width="24" height="24" viewBox="0 0 24 24" fill="none" xmlns="http://www.w3.org/2000/svg"><path fill-rule="evenodd" clip-rule="evenodd" d="M18.9997 12C18.9997 15.8661 15.8657 19.0001 11.9998 19.0001C8.13398 19.0001 5 15.8661 5 12C5 8.13398 8.13398 5 11.9998 5C15.8657 5 18.9997 8.13398 18.9997 12ZM20.9997 12C20.9997 16.9706 16.9703 21.0001 11.9998 21.0001C7.02936 21.0001 3 16.9706 3 12C3 7.02946 7.02936 3 11.9998 3C16.9703 3 20.9997 7.02946 20.9997 12ZM14.2501 11.4C15.0785 11.4 15.7501 10.7284 15.7501 9.90001C15.7501 9.07158 15.0785 8.4 14.2501 8.4C13.4217 8.4 12.7501 9.07158 12.7501 9.90001C12.7501 10.7284 13.4217 11.4 14.2501 11.4ZM14.3691 13.6253C13.6239 14.5568 12.7693 14.9375 12 14.9375C11.2306 14.9375 10.376 14.5568 9.63086 13.6253C9.28585 13.194 8.65656 13.1241 8.22529 13.4691C7.79403 13.8141 7.7241 14.4434 8.0691 14.8746C9.12392 16.1932 10.5193 16.9375 12 16.9375C13.4806 16.9375 14.876 16.1932 15.9308 14.8747C16.2759 14.4435 16.2059 13.8142 15.7747 13.4692C15.3434 13.1241 14.7141 13.1941 14.3691 13.6253ZM11.2501 9.90001C11.2501 10.7284 10.5785 11.4 9.7501 11.4C8.92169 11.4 8.25012 10.7284 8.25012 9.90001C8.25012 9.07158 8.92169 8.4 9.7501 8.4C10.5785 8.4 11.2501 9.07158 11.2501 9.90001Z" fill="black"/></svg>
